/* XPM */
static char *result[] = {
/* columns rows colors chars-per-pixel */
"64 64 5 1 ",
"  c #5C4E92",
". c #766DAA",
"X c #DDD5DE",
"o c #F3F2C0",
"O c None",
/* pixels */
"OOOOOOOOOOOOOOOOOOOOOOOOOOOOOOOOOOOOOOOOOOOOOOOOOOOOOOOOOOOOOOOO",
"OOOOOOOOOOOOOOOOOOOOOOOOOOOOOOOOOOOOOOOOOOOOOOOOOOOOOOOOOOOOOOOO",
"OOOOOOOOOOOOOOOOOOOOOOOOOOOOOOOOOOOOOOOOOOOOOOOOOOOOOOOOOOOOOOOO",
"OOOOOOOOOOOOOOOOOOOOOOOOOOOOOOOOOOOOOOOOOOOOOOOOOOOOOOOOOOOOOOOO",
"OOOOOOOOOOOO            OOOOOOOOOOOOOOOO            OOOOOOOOOOOO",
"OOOOOOOOOOOO            OOOOOOOOOOOOOOOO            OOOOOOOOOOOO",
"OOOOOOOOOOOO            OOOOOOOOOOOOOOOO            OOOOOOOOOOOO",
"OOOOOOOOOOOO            OOOOOOOOOOOOOOOO            OOOOOOOOOOOO",
"OOOOOOOO    oooooooooooo    OOOOOOOO    oooooooooooo    OOOOOOOO",
"OOOOOOOO    oooooooooooo    OOOOOOOO    oooooooooooo    OOOOOOOO",
"OOOOOOOO    oooooooooooo    OOOOOOOO    oooooooooooo    OOOOOOOO",
"OOOOOOOO    oooooooooooo    OOOOOOOO    oooooooooooo    OOOOOOOO",
"OOOOOOOO    oooooooooooo                oooooooooooo    OOOOOOOO",
"OOOOOOOO    oooooooooooo                oooooooooooo    OOOOOOOO",
"OOOOOOOO    oooooooooooo                oooooooooooo    OOOOOOOO",
"OOOOOOOO    oooooooooooo                oooooooooooo    OOOOOOOO",
"OOOOOOOO    ooooooooooooXXXXXXXXXXXXXXXXoooooooooooo    OOOOOOOO",
"OOOOOOOO    ooooooooooooXXXXXXXXXXXXXXXXoooooooooooo    OOOOOOOO",
"OOOOOOOO    ooooooooooooXXXXXXXXXXXXXXXXoooooooooooo    OOOOOOOO",
"OOOOOOOO    ooooooooooooXXXXXXXXXXXXXXXXoooooooooooo    OOOOOOOO",
"OOOOOOOO    oooooooooooooooooooooooooooooooooooooooo    OOOOOOOO",
"OOOOOOOO    oooooooooooooooooooooooooooooooooooooooo    OOOOOOOO",
"OOOOOOOO    oooooooooooooooooooooooooooooooooooooooo    OOOOOOOO",
"OOOOOOOO    oooooooooooooooooooooooooooooooooooooooo    OOOOOOOO",
"OOOOOOOO    oooooooooooooooooooooooooooooooooooooooo    OOOOOOOO",
"OOOOOOOO    oooooooooooooooooooooooooooooooooooooooo    OOOOOOOO",
"OOOOOOOO    oooooooooooooooooooooooooooooooooooooooo    OOOOOOOO",
"OOOOOOOO    oooooooooooooooooooooooooooooooooooooooo    OOOOOOOO",
"OOOO        oooooooooooooooooooooooooooooooooooooooo        OOOO",
"OOOO        oooooooooooooooooooooooooooooooooooooooo        OOOO",
"OOOO        oooooooooooooooooooooooooooooooooooooooo        OOOO",
"OOOO        oooooooooooooooooooooooooooooooooooooooo        OOOO",
"OOOOOOOO    oooooooooooooooooooooooooooooooooooooooo    OOOOOOOO",
"OOOOOOOO    oooooooooooooooooooooooooooooooooooooooo    OOOOOOOO",
"OOOOOOOO    oooooooooooooooooooooooooooooooooooooooo    OOOOOOOO",
"OOOOOOOO    oooooooooooooooooooooooooooooooooooooooo    OOOOOOOO",
"OOOO        oooooooooooooooooooooooooooooooooooooooo        OOOO",
"OOOO        oooooooooooooooooooooooooooooooooooooooo        OOOO",
"OOOO        oooooooooooooooooooooooooooooooooooooooo        OOOO",
"OOOO        oooooooooooooooooooooooooooooooooooooooo        OOOO",
"OOOOOOOO    oooooooooooooooooooooooooooooooooooooooo    OOOOOOOO",
"OOOOOOOO    oooooooooooooooooooooooooooooooooooooooo    OOOOOOOO",
"OOOOOOOO    oooooooooooooooooooooooooooooooooooooooo    OOOOOOOO",
"OOOOOOOO    oooooooooooooooooooooooooooooooooooooooo    OOOOOOOO",
"OOOOOOOO            ........        ........            OOOOOOOO",
"OOOOOOOO            ........        ........            OOOOOOOO",
"OOOOOOOO            ........        ........            OOOOOOOO",
"OOOOOOOO            ........        ........            OOOOOOOO",
"OOOOOOOO    XXXXoooo....    oooooooo    ....ooooXXXX    OOOOOOOO",
"OOOOOOOO    XXXXoooo....    oooooooo    ....ooooXXXX    OOOOOOOO",
"OOOOOOOO    XXXXoooo....    oooooooo    ....ooooXXXX    OOOOOOOO",
"OOOOOOOO    XXXXoooo....    oooooooo    ....ooooXXXX    OOOOOOOO",
"OOOOOOOOOOOO        oooooooooooooooooooooooo        OOOOOOOOOOOO",
"OOOOOOOOOOOO        oooooooooooooooooooooooo        OOOOOOOOOOOO",
"OOOOOOOOOOOO        oooooooooooooooooooooooo        OOOOOOOOOOOO",
"OOOOOOOOOOOO        oooooooooooooooooooooooo        OOOOOOOOOOOO",
"OOOOOOOOOOOOOOOO    XXXXXXXX        XXXXXXXX    OOOOOOOOOOOOOOOO",
"OOOOOOOOOOOOOOOO    XXXXXXXX        XXXXXXXX    OOOOOOOOOOOOOOOO",
"OOOOOOOOOOOOOOOO    XXXXXXXX        XXXXXXXX    OOOOOOOOOOOOOOOO",
"OOOOOOOOOOOOOOOO    XXXXXXXX        XXXXXXXX    OOOOOOOOOOOOOOOO",
"OOOOOOOOOOOOOOOOOOOO        OOOOOOOO        OOOOOOOOOOOOOOOOOOOO",
"OOOOOOOOOOOOOOOOOOOO        OOOOOOOO        OOOOOOOOOOOOOOOOOOOO",
"OOOOOOOOOOOOOOOOOOOO        OOOOOOOO        OOOOOOOOOOOOOOOOOOOO",
"OOOOOOOOOOOOOOOOOOOO        OOOOOOOO        OOOOOOOOOOOOOOOOOOOO"
};
