/* XPM */
static char *result[] = {
/* columns rows colors chars-per-pixel */
"64 64 6 1 ",
"  c #545959",
". c #6B7470",
"X c #818B83",
"o c #9DA89A",
"O c #B0B9AB",
"+ c None",
/* pixels */
"++++++++++++++++++++++++++++++++++++++++++++++++++++++++++++++++",
"++++++++++++++++++++++++++++++++++++++++++++++++++++++++++++++++",
"++++++++++++++++++++++++++++++++++++++++++++++++++++++++++++++++",
"++++++++++++++++++++++++++++++++++++++++++++++++++++++++++++++++",
"++++++++++++++++++++++++++++++++++++++++++++++++++++++++++++++++",
"++++++++++++++++++++++++++++++++++++++++++++++++++++++++++++++++",
"++++++++++++++++++++++++++++++++++++++++++++++++++++++++++++++++",
"++++++++++++++++++++++++++++++++++++++++++++++++++++++++++++++++",
"++++++++++++++++++++....XXXX++++++++++++++++++++++++++++++++++++",
"++++++++++++++++++++....XXXX++++++++++++++++++++++++++++++++++++",
"++++++++++++++++++++....XXXX++++++++++++++++++++++++++++++++++++",
"++++++++++++++++++++....XXXX++++++++++++++++++++++++++++++++++++",
"++++++++++++++++....OOOOOOOOXXXX++++++++++++++++++++++++++++++++",
"++++++++++++++++....OOOOOOOOXXXX++++++++++++++++++++++++++++++++",
"++++++++++++++++....OOOOOOOOXXXX++++++++++++++++++++++++++++++++",
"++++++++++++++++....OOOOOOOOXXXX++++++++++++++++++++++++++++++++",
"++++++++++++++++    ooooOOOOOOOO....++++++++++++++++++++++++++++",
"++++++++++++++++    ooooOOOOOOOO....++++++++++++++++++++++++++++",
"++++++++++++++++    ooooOOOOOOOO....++++++++++++++++++++++++++++",
"++++++++++++++++    ooooOOOOOOOO....++++++++++++++++++++++++++++",
"++++++++++++++++    ooooooooooooOOOO    ++++++++++++++++++++++++",
"++++++++++++++++    ooooooooooooOOOO    ++++++++++++++++++++++++",
"++++++++++++++++    ooooooooooooOOOO    ++++++++++++++++++++++++",
"++++++++++++++++    ooooooooooooOOOO    ++++++++++++++++++++++++",
"++++++++++++    ....oooooooooooo....XXXX    ++++++++++++++++++++",
"++++++++++++    ....oooooooooooo....XXXX    ++++++++++++++++++++",
"++++++++++++    ....oooooooooooo....XXXX    ++++++++++++++++++++",
"++++++++++++    ....oooooooooooo....XXXX    ++++++++++++++++++++",
"++++++++++++    XXXX............XXXXXXXX    ++++++++++++++++++++",
"++++++++++++    XXXX............XXXXXXXX    ++++++++++++++++++++",
"++++++++++++    XXXX............XXXXXXXX    ++++++++++++++++++++",
"++++++++++++    XXXX............XXXXXXXX    ++++++++++++++++++++",
"++++++++++++++++XXXXXXXX........XXXX++++++++++++++++++++++++++++",
"++++++++++++++++XXXXXXXX........XXXX++++++++++++++++++++++++++++",
"++++++++++++++++XXXXXXXX........XXXX++++++++++++++++++++++++++++",
"++++++++++++++++XXXXXXXX........XXXX++++++++++++++++++++++++++++",
"++++++++++++++++++++++++++++++++++++++++++++++++++++++++++++++++",
"++++++++++++++++++++++++++++++++++++++++++++++++++++++++++++++++",
"++++++++++++++++++++++++++++++++++++++++++++++++++++++++++++++++",
"++++++++++++++++++++++++++++++++++++++++++++++++++++++++++++++++",
"++++++++++++++++++++++++++++++++++++++++++++++++++++++++++++++++",
"++++++++++++++++++++++++++++++++++++++++++++++++++++++++++++++++",
"++++++++++++++++++++++++++++++++++++++++++++++++++++++++++++++++",
"++++++++++++++++++++++++++++++++++++++++++++++++++++++++++++++++",
"++++++++++++++++++++++++++++++++++++++++++++++++++++++++++++++++",
"++++++++++++++++++++++++++++++++++++++++++++++++++++++++++++++++",
"++++++++++++++++++++++++++++++++++++++++++++++++++++++++++++++++",
"++++++++++++++++++++++++++++++++++++++++++++++++++++++++++++++++",
"++++++++++++++++++++++++++++++++++++++++++++++++++++++++++++++++",
"++++++++++++++++++++++++++++++++++++++++++++++++++++++++++++++++",
"++++++++++++++++++++++++++++++++++++++++++++++++++++++++++++++++",
"++++++++++++++++++++++++++++++++++++++++++++++++++++++++++++++++",
"++++++++++++++++++++++++++++++++++++++++++++++++++++++++++++++++",
"++++++++++++++++++++++++++++++++++++++++++++++++++++++++++++++++",
"++++++++++++++++++++++++++++++++++++++++++++++++++++++++++++++++",
"++++++++++++++++++++++++++++++++++++++++++++++++++++++++++++++++",
"++++++++++++++++++++++++++++++++++++++++++++++++++++++++++++++++",
"++++++++++++++++++++++++++++++++++++++++++++++++++++++++++++++++",
"++++++++++++++++++++++++++++++++++++++++++++++++++++++++++++++++",
"++++++++++++++++++++++++++++++++++++++++++++++++++++++++++++++++",
"++++++++++++++++++++++++++++++++++++++++++++++++++++++++++++++++",
"++++++++++++++++++++++++++++++++++++++++++++++++++++++++++++++++",
"++++++++++++++++++++++++++++++++++++++++++++++++++++++++++++++++",
"++++++++++++++++++++++++++++++++++++++++++++++++++++++++++++++++"
};
