/* XPM */
static char *result[] = {
/* columns rows colors chars-per-pixel */
"64 64 11 1 ",
"  c #754C60",
". c #5F7A79",
"X c #8A4A70",
"o c #A35B70",
"O c #AF6776",
"+ c #BD757E",
"@ c #6E967C",
"# c #82A884",
"$ c #D99A9A",
"% c #F3F4E7",
"& c None",
/* pixels */
"&&&&&&&&&&&&&&&&&&&&&&&&&&&&&&&&&&&&&&&&&&&&&&&&&&&&&&&&&&&&&&&&",
"&&&&&&&&&&&&&&&&&&&&&&&&&&&&&&&&&&&&&&&&&&&&&&&&&&&&&&&&&&&&&&&&",
"&&&&&&&&&&&&&&&&&&&&&&&&&&&&&&&&&&&&&&&&&&&&&&&&&&&&&&&&&&&&&&&&",
"&&&&&&&&&&&&&&&&&&&&&&&&&&&&&&&&&&&&&&&&&&&&&&&&&&&&&&&&&&&&&&&&",
"&&&&&&&&&&&&&&&&&&&&&&&&&&&&&&&&&&&&&&&&%%%%%%%%%%%%%%%%&&&&&&&&",
"&&&&&&&&&&&&&&&&&&&&&&&&&&&&&&&&&&&&&&&&%%%%%%%%%%%%%%%%&&&&&&&&",
"&&&&&&&&&&&&&&&&&&&&&&&&&&&&&&&&&&&&&&&&%%%%%%%%%%%%%%%%&&&&&&&&",
"&&&&&&&&&&&&&&&&&&&&&&&&&&&&&&&&&&&&&&&&%%%%%%%%%%%%%%%%&&&&&&&&",
"&&&&&&&&&&&&&&&&&&&&&&&&%%%%%%%%%%%%%%%%............%%%%&&&&&&&&",
"&&&&&&&&&&&&&&&&&&&&&&&&%%%%%%%%%%%%%%%%............%%%%&&&&&&&&",
"&&&&&&&&&&&&&&&&&&&&&&&&%%%%%%%%%%%%%%%%............%%%%&&&&&&&&",
"&&&&&&&&&&&&&&&&&&&&&&&&%%%%%%%%%%%%%%%%............%%%%&&&&&&&&",
"&&&&&&&&&&&&&&&&&&&&&&&&%%%%    %%%%....########....%%%%&&&&&&&&",
"&&&&&&&&&&&&&&&&&&&&&&&&%%%%    %%%%....########....%%%%&&&&&&&&",
"&&&&&&&&&&&&&&&&&&&&&&&&%%%%    %%%%....########....%%%%&&&&&&&&",
"&&&&&&&&&&&&&&&&&&&&&&&&%%%%    %%%%....########....%%%%&&&&&&&&",
"&&&&&&&&&&&&&&&&%%%%%%%%%%%%    ....@@@@@@@@####....%%%%&&&&&&&&",
"&&&&&&&&&&&&&&&&%%%%%%%%%%%%    ....@@@@@@@@####....%%%%&&&&&&&&",
"&&&&&&&&&&&&&&&&%%%%%%%%%%%%    ....@@@@@@@@####....%%%%&&&&&&&&",
"&&&&&&&&&&&&&&&&%%%%%%%%%%%%    ....@@@@@@@@####....%%%%&&&&&&&&",
"&&&&&&&&&&&&%%%%oooooooooooo    ................%%%%&&&&&&&&&&&&",
"&&&&&&&&&&&&%%%%oooooooooooo    ................%%%%&&&&&&&&&&&&",
"&&&&&&&&&&&&%%%%oooooooooooo    ................%%%%&&&&&&&&&&&&",
"&&&&&&&&&&&&%%%%oooooooooooo    ................%%%%&&&&&&&&&&&&",
"&&&&&&&&%%%%oooo++++++++++++ooooooooOOOOOOOOoooo%%%%&&&&&&&&&&&&",
"&&&&&&&&%%%%oooo++++++++++++ooooooooOOOOOOOOoooo%%%%&&&&&&&&&&&&",
"&&&&&&&&%%%%oooo++++++++++++ooooooooOOOOOOOOoooo%%%%&&&&&&&&&&&&",
"&&&&&&&&%%%%oooo++++++++++++ooooooooOOOOOOOOoooo%%%%&&&&&&&&&&&&",
"&&&&%%%%oooo++++$$$$++++++++++++OOOOOOOOOOOOOOOOoooo%%%%&&&&&&&&",
"&&&&%%%%oooo++++$$$$++++++++++++OOOOOOOOOOOOOOOOoooo%%%%&&&&&&&&",
"&&&&%%%%oooo++++$$$$++++++++++++OOOOOOOOOOOOOOOOoooo%%%%&&&&&&&&",
"&&&&%%%%oooo++++$$$$++++++++++++OOOOOOOOOOOOOOOOoooo%%%%&&&&&&&&",
"&&&&%%%%oooo++++++++++++$$$$++++OOOOOOOOOOOOOOOOXXXX%%%%&&&&&&&&",
"&&&&%%%%oooo++++++++++++$$$$++++OOOOOOOOOOOOOOOOXXXX%%%%&&&&&&&&",
"&&&&%%%%oooo++++++++++++$$$$++++OOOOOOOOOOOOOOOOXXXX%%%%&&&&&&&&",
"&&&&%%%%oooo++++++++++++$$$$++++OOOOOOOOOOOOOOOOXXXX%%%%&&&&&&&&",
"&&&&%%%%oooo++++++++++++++++++++OOOOOOOOOOOOOOOOXXXX%%%%&&&&&&&&",
"&&&&%%%%oooo++++++++++++++++++++OOOOOOOOOOOOOOOOXXXX%%%%&&&&&&&&",
"&&&&%%%%oooo++++++++++++++++++++OOOOOOOOOOOOOOOOXXXX%%%%&&&&&&&&",
"&&&&%%%%oooo++++++++++++++++++++OOOOOOOOOOOOOOOOXXXX%%%%&&&&&&&&",
"&&&&%%%%XXXX++++++++++++++++OOOOOOOOOOOOOOOOOOOOXXXX%%%%&&&&&&&&",
"&&&&%%%%XXXX++++++++++++++++OOOOOOOOOOOOOOOOOOOOXXXX%%%%&&&&&&&&",
"&&&&%%%%XXXX++++++++++++++++OOOOOOOOOOOOOOOOOOOOXXXX%%%%&&&&&&&&",
"&&&&%%%%XXXX++++++++++++++++OOOOOOOOOOOOOOOOOOOOXXXX%%%%&&&&&&&&",
"&&&&&&&&%%%%XXXXOOOOOOOOOOOOOOOOOOOOOOOOOOOOXXXX%%%%&&&&&&&&&&&&",
"&&&&&&&&%%%%XXXXOOOOOOOOOOOOOOOOOOOOOOOOOOOOXXXX%%%%&&&&&&&&&&&&",
"&&&&&&&&%%%%XXXXOOOOOOOOOOOOOOOOOOOOOOOOOOOOXXXX%%%%&&&&&&&&&&&&",
"&&&&&&&&%%%%XXXXOOOOOOOOOOOOOOOOOOOOOOOOOOOOXXXX%%%%&&&&&&&&&&&&",
"&&&&&&&&&&&&%%%%XXXXOOOOOOOOXXXXOOOOOOOOXXXX%%%%&&&&&&&&&&&&&&&&",
"&&&&&&&&&&&&%%%%XXXXOOOOOOOOXXXXOOOOOOOOXXXX%%%%&&&&&&&&&&&&&&&&",
"&&&&&&&&&&&&%%%%XXXXOOOOOOOOXXXXOOOOOOOOXXXX%%%%&&&&&&&&&&&&&&&&",
"&&&&&&&&&&&&%%%%XXXXOOOOOOOOXXXXOOOOOOOOXXXX%%%%&&&&&&&&&&&&&&&&",
"&&&&&&&&&&&&&&&&%%%%XXXXXXXX%%%%XXXXXXXX%%%%&&&&&&&&&&&&&&&&&&&&",
"&&&&&&&&&&&&&&&&%%%%XXXXXXXX%%%%XXXXXXXX%%%%&&&&&&&&&&&&&&&&&&&&",
"&&&&&&&&&&&&&&&&%%%%XXXXXXXX%%%%XXXXXXXX%%%%&&&&&&&&&&&&&&&&&&&&",
"&&&&&&&&&&&&&&&&%%%%XXXXXXXX%%%%XXXXXXXX%%%%&&&&&&&&&&&&&&&&&&&&",
"&&&&&&&&&&&&&&&&&&&&%%%%%%%%&&&&%%%%%%%%&&&&&&&&&&&&&&&&&&&&&&&&",
"&&&&&&&&&&&&&&&&&&&&%%%%%%%%&&&&%%%%%%%%&&&&&&&&&&&&&&&&&&&&&&&&",
"&&&&&&&&&&&&&&&&&&&&%%%%%%%%&&&&%%%%%%%%&&&&&&&&&&&&&&&&&&&&&&&&",
"&&&&&&&&&&&&&&&&&&&&%%%%%%%%&&&&%%%%%%%%&&&&&&&&&&&&&&&&&&&&&&&&",
"&&&&&&&&&&&&&&&&&&&&&&&&&&&&&&&&&&&&&&&&&&&&&&&&&&&&&&&&&&&&&&&&",
"&&&&&&&&&&&&&&&&&&&&&&&&&&&&&&&&&&&&&&&&&&&&&&&&&&&&&&&&&&&&&&&&",
"&&&&&&&&&&&&&&&&&&&&&&&&&&&&&&&&&&&&&&&&&&&&&&&&&&&&&&&&&&&&&&&&",
"&&&&&&&&&&&&&&&&&&&&&&&&&&&&&&&&&&&&&&&&&&&&&&&&&&&&&&&&&&&&&&&&"
};
