/* XPM */
static char *result[] = {
/* columns rows colors chars-per-pixel */
"64 64 6 1 ",
"  c #545959",
". c #6B7470",
"X c #818B83",
"o c #9DA89A",
"O c #C1C8B9",
"+ c None",
/* pixels */
"++++++++++++++++++++++++++++++++++++++++++++++++++++++++++++++++",
"++++++++++++++++++++++++++++++++++++++++++++++++++++++++++++++++",
"++++++++++++++++++++++++++++++++++++++++++++++++++++++++++++++++",
"++++++++++++++++++++++++++++++++++++++++++++++++++++++++++++++++",
"++++++++++++++++++++++++++++++++++++++++++++++++++++++++++++++++",
"++++++++++++++++++++++++++++++++++++++++++++++++++++++++++++++++",
"++++++++++++++++++++++++++++++++++++++++++++++++++++++++++++++++",
"++++++++++++++++++++++++++++++++++++++++++++++++++++++++++++++++",
"++++++++++++++++++++++++............++++++++++++++++++++++++++++",
"++++++++++++++++++++++++............++++++++++++++++++++++++++++",
"++++++++++++++++++++++++............++++++++++++++++++++++++++++",
"++++++++++++++++++++++++............++++++++++++++++++++++++++++",
"++++++++++++++++++++....OOOOOOOOOOOO........++++++++++++++++++++",
"++++++++++++++++++++....OOOOOOOOOOOO........++++++++++++++++++++",
"++++++++++++++++++++....OOOOOOOOOOOO........++++++++++++++++++++",
"++++++++++++++++++++....OOOOOOOOOOOO........++++++++++++++++++++",
"++++++++++++++++....OOOOOOOOOOOOOOOOOOOOOOOO........++++++++++++",
"++++++++++++++++....OOOOOOOOOOOOOOOOOOOOOOOO........++++++++++++",
"++++++++++++++++....OOOOOOOOOOOOOOOOOOOOOOOO........++++++++++++",
"++++++++++++++++....OOOOOOOOOOOOOOOOOOOOOOOO........++++++++++++",
"++++++++++++++++....XXXXOOOOOOOOOOOOooooooooooooOOOO....++++++++",
"++++++++++++++++....XXXXOOOOOOOOOOOOooooooooooooOOOO....++++++++",
"++++++++++++++++....XXXXOOOOOOOOOOOOooooooooooooOOOO....++++++++",
"++++++++++++++++....XXXXOOOOOOOOOOOOooooooooooooOOOO....++++++++",
"++++++++++++....ooooXXXXXXXXooooooooooooooooOOOOOOOOOOOO    ++++",
"++++++++++++....ooooXXXXXXXXooooooooooooooooOOOOOOOOOOOO    ++++",
"++++++++++++....ooooXXXXXXXXooooooooooooooooOOOOOOOOOOOO    ++++",
"++++++++++++....ooooXXXXXXXXooooooooooooooooOOOOOOOOOOOO    ++++",
"++++++++....ooooooooooooXXXXooooooooOOOOOOOOOOOOOOOOOOOO    ++++",
"++++++++....ooooooooooooXXXXooooooooOOOOOOOOOOOOOOOOOOOO    ++++",
"++++++++....ooooooooooooXXXXooooooooOOOOOOOOOOOOOOOOOOOO    ++++",
"++++++++....ooooooooooooXXXXooooooooOOOOOOOOOOOOOOOOOOOO    ++++",
"++++    ooooooooooooooooooooOOOOOOOOOOOOOOOOOOOOOOOOXXXX    ++++",
"++++    ooooooooooooooooooooOOOOOOOOOOOOOOOOOOOOOOOOXXXX    ++++",
"++++    ooooooooooooooooooooOOOOOOOOOOOOOOOOOOOOOOOOXXXX    ++++",
"++++    ooooooooooooooooooooOOOOOOOOOOOOOOOOOOOOOOOOXXXX    ++++",
"++++    XXXXoooooooo....OOOOOOOOOOOOOOOOOOOOOOOOXXXXXXXX    ++++",
"++++    XXXXoooooooo....OOOOOOOOOOOOOOOOOOOOOOOOXXXXXXXX    ++++",
"++++    XXXXoooooooo....OOOOOOOOOOOOOOOOOOOOOOOOXXXXXXXX    ++++",
"++++    XXXXoooooooo....OOOOOOOOOOOOOOOOOOOOOOOOXXXXXXXX    ++++",
"++++++++XXXXXXXX....XXXXOOOOOOOOOOOOOOOOXXXXXXXXXXXXXXXX    ++++",
"++++++++XXXXXXXX....XXXXOOOOOOOOOOOOOOOOXXXXXXXXXXXXXXXX    ++++",
"++++++++XXXXXXXX....XXXXOOOOOOOOOOOOOOOOXXXXXXXXXXXXXXXX    ++++",
"++++++++XXXXXXXX....XXXXOOOOOOOOOOOOOOOOXXXXXXXXXXXXXXXX    ++++",
"++++++++++++++++....XXXXXXXXXXXXXXXXXXXXXXXXXXXXXXXXXXXX++++++++",
"++++++++++++++++....XXXXXXXXXXXXXXXXXXXXXXXXXXXXXXXXXXXX++++++++",
"++++++++++++++++....XXXXXXXXXXXXXXXXXXXXXXXXXXXXXXXXXXXX++++++++",
"++++++++++++++++....XXXXXXXXXXXXXXXXXXXXXXXXXXXXXXXXXXXX++++++++",
"++++++++++++++++++++XXXXXXXXXXXXXXXXXXXXXXXXXXXX++++++++++++++++",
"++++++++++++++++++++XXXXXXXXXXXXXXXXXXXXXXXXXXXX++++++++++++++++",
"++++++++++++++++++++XXXXXXXXXXXXXXXXXXXXXXXXXXXX++++++++++++++++",
"++++++++++++++++++++XXXXXXXXXXXXXXXXXXXXXXXXXXXX++++++++++++++++",
"++++++++++++++++++++++++++++++++++++++++++++++++++++++++++++++++",
"++++++++++++++++++++++++++++++++++++++++++++++++++++++++++++++++",
"++++++++++++++++++++++++++++++++++++++++++++++++++++++++++++++++",
"++++++++++++++++++++++++++++++++++++++++++++++++++++++++++++++++",
"++++++++++++++++++++++++++++++++++++++++++++++++++++++++++++++++",
"++++++++++++++++++++++++++++++++++++++++++++++++++++++++++++++++",
"++++++++++++++++++++++++++++++++++++++++++++++++++++++++++++++++",
"++++++++++++++++++++++++++++++++++++++++++++++++++++++++++++++++",
"++++++++++++++++++++++++++++++++++++++++++++++++++++++++++++++++",
"++++++++++++++++++++++++++++++++++++++++++++++++++++++++++++++++",
"++++++++++++++++++++++++++++++++++++++++++++++++++++++++++++++++",
"++++++++++++++++++++++++++++++++++++++++++++++++++++++++++++++++"
};
