/* XPM */
static char *result[] = {
/* columns rows colors chars-per-pixel */
"64 64 6 1 ",
"  c #90625D",
". c #B68962",
"X c #C49A6C",
"o c #DCB98A",
"O c #E8CFA6",
"+ c None",
/* pixels */
"++++++++++++++++++++++++++++++++++++++++++++++++++++++++++++++++",
"++++++++++++++++++++++++++++++++++++++++++++++++++++++++++++++++",
"++++++++++++++++++++++++++++++++++++++++++++++++++++++++++++++++",
"++++++++++++++++++++++++++++++++++++++++++++++++++++++++++++++++",
"++++++++++++++++++++++++++++++++++++++++++++++++++++++++++++++++",
"++++++++++++++++++++++++++++++++++++++++++++++++++++++++++++++++",
"++++++++++++++++++++++++++++++++++++++++++++++++++++++++++++++++",
"++++++++++++++++++++++++++++++++++++++++++++++++++++++++++++++++",
"++++++++++++++++++++++++++++++++++++++++++++++++++++++++++++++++",
"++++++++++++++++++++++++++++++++++++++++++++++++++++++++++++++++",
"++++++++++++++++++++++++++++++++++++++++++++++++++++++++++++++++",
"++++++++++++++++++++++++++++++++++++++++++++++++++++++++++++++++",
"++++++++++++++++++++++++++++++++++++++++++++++++++++++++++++++++",
"++++++++++++++++++++++++++++++++++++++++++++++++++++++++++++++++",
"++++++++++++++++++++++++++++++++++++++++++++++++++++++++++++++++",
"++++++++++++++++++++++++++++++++++++++++++++++++++++++++++++++++",
"++++++++++++++++++++++++++++        ++++++++++++++++++++++++++++",
"++++++++++++++++++++++++++++        ++++++++++++++++++++++++++++",
"++++++++++++++++++++++++++++        ++++++++++++++++++++++++++++",
"++++++++++++++++++++++++++++        ++++++++++++++++++++++++++++",
"++++++++++++++++++++++++    oooooooo    ++++++++++++++++++++++++",
"++++++++++++++++++++++++    oooooooo    ++++++++++++++++++++++++",
"++++++++++++++++++++++++    oooooooo    ++++++++++++++++++++++++",
"++++++++++++++++++++++++    oooooooo    ++++++++++++++++++++++++",
"++++++++++++++++++++    oooooooooooooooo    ++++++++++++++++++++",
"++++++++++++++++++++    oooooooooooooooo    ++++++++++++++++++++",
"++++++++++++++++++++    oooooooooooooooo    ++++++++++++++++++++",
"++++++++++++++++++++    oooooooooooooooo    ++++++++++++++++++++",
"++++++++++++++++++++    OOOOooooooooOOOO    ++++++++++++++++++++",
"++++++++++++++++++++    OOOOooooooooOOOO    ++++++++++++++++++++",
"++++++++++++++++++++    OOOOooooooooOOOO    ++++++++++++++++++++",
"++++++++++++++++++++    OOOOooooooooOOOO    ++++++++++++++++++++",
"++++++++++++++++++++    ....OOOOOOOO....    ++++++++++++++++++++",
"++++++++++++++++++++    ....OOOOOOOO....    ++++++++++++++++++++",
"++++++++++++++++++++    ....OOOOOOOO....    ++++++++++++++++++++",
"++++++++++++++++++++    ....OOOOOOOO....    ++++++++++++++++++++",
"++++++++++++++++++++    ................    ++++++++++++++++++++",
"++++++++++++++++++++    ................    ++++++++++++++++++++",
"++++++++++++++++++++    ................    ++++++++++++++++++++",
"++++++++++++++++++++    ................    ++++++++++++++++++++",
"++++++++++++++++++++    XXXX....XXXX....    ++++++++++++++++++++",
"++++++++++++++++++++    XXXX....XXXX....    ++++++++++++++++++++",
"++++++++++++++++++++    XXXX....XXXX....    ++++++++++++++++++++",
"++++++++++++++++++++    XXXX....XXXX....    ++++++++++++++++++++",
"++++++++++++++++    XXXXXXXXXXXXXXXXXXXXXXXX    ++++++++++++++++",
"++++++++++++++++    XXXXXXXXXXXXXXXXXXXXXXXX    ++++++++++++++++",
"++++++++++++++++    XXXXXXXXXXXXXXXXXXXXXXXX    ++++++++++++++++",
"++++++++++++++++    XXXXXXXXXXXXXXXXXXXXXXXX    ++++++++++++++++",
"++++++++++++++++++++++++XXXXXXXXXXXXXXXX++++++++++++++++++++++++",
"++++++++++++++++++++++++XXXXXXXXXXXXXXXX++++++++++++++++++++++++",
"++++++++++++++++++++++++XXXXXXXXXXXXXXXX++++++++++++++++++++++++",
"++++++++++++++++++++++++XXXXXXXXXXXXXXXX++++++++++++++++++++++++",
"++++++++++++++++++++++++++++XXXX++++++++++++++++++++++++++++++++",
"++++++++++++++++++++++++++++XXXX++++++++++++++++++++++++++++++++",
"++++++++++++++++++++++++++++XXXX++++++++++++++++++++++++++++++++",
"++++++++++++++++++++++++++++XXXX++++++++++++++++++++++++++++++++",
"++++++++++++++++++++++++++++++++++++++++++++++++++++++++++++++++",
"++++++++++++++++++++++++++++++++++++++++++++++++++++++++++++++++",
"++++++++++++++++++++++++++++++++++++++++++++++++++++++++++++++++",
"++++++++++++++++++++++++++++++++++++++++++++++++++++++++++++++++",
"++++++++++++++++++++++++++++++++++++++++++++++++++++++++++++++++",
"++++++++++++++++++++++++++++++++++++++++++++++++++++++++++++++++",
"++++++++++++++++++++++++++++++++++++++++++++++++++++++++++++++++",
"++++++++++++++++++++++++++++++++++++++++++++++++++++++++++++++++"
};
