/* XPM */
static char *result[] = {
/* columns rows colors chars-per-pixel */
"64 64 6 1 ",
"  c #90625D",
". c #B68962",
"X c #C49A6C",
"o c #DCB98A",
"O c #E8CFA6",
"+ c None",
/* pixels */
"++++++++++++++++++++++++++++++++++++++++++++++++++++++++++++++++",
"++++++++++++++++++++++++++++++++++++++++++++++++++++++++++++++++",
"++++++++++++++++++++++++++++++++++++++++++++++++++++++++++++++++",
"++++++++++++++++++++++++++++++++++++++++++++++++++++++++++++++++",
"++++++++++++++++++++++++++++++++++++++++++++++++++++++++++++++++",
"++++++++++++++++++++++++++++++++++++++++++++++++++++++++++++++++",
"++++++++++++++++++++++++++++++++++++++++++++++++++++++++++++++++",
"++++++++++++++++++++++++++++++++++++++++++++++++++++++++++++++++",
"++++++++++++++++++++++++++++++++++++++++++++++++++++++++++++++++",
"++++++++++++++++++++++++++++++++++++++++++++++++++++++++++++++++",
"++++++++++++++++++++++++++++++++++++++++++++++++++++++++++++++++",
"++++++++++++++++++++++++++++++++++++++++++++++++++++++++++++++++",
"++++++++++++++++++++++++++++++++++++++++++++++++++++++++++++++++",
"++++++++++++++++++++++++++++++++++++++++++++++++++++++++++++++++",
"++++++++++++++++++++++++++++++++++++++++++++++++++++++++++++++++",
"++++++++++++++++++++++++++++++++++++++++++++++++++++++++++++++++",
"++++++++++++++++++++++++                ++++++++++++++++++++++++",
"++++++++++++++++++++++++                ++++++++++++++++++++++++",
"++++++++++++++++++++++++                ++++++++++++++++++++++++",
"++++++++++++++++++++++++                ++++++++++++++++++++++++",
"++++++++++++++++++++    oooooooooooooooo    ++++++++++++++++++++",
"++++++++++++++++++++    oooooooooooooooo    ++++++++++++++++++++",
"++++++++++++++++++++    oooooooooooooooo    ++++++++++++++++++++",
"++++++++++++++++++++    oooooooooooooooo    ++++++++++++++++++++",
"++++++++++++++++    oooooooooooooooooooooooo    ++++++++++++++++",
"++++++++++++++++    oooooooooooooooooooooooo    ++++++++++++++++",
"++++++++++++++++    oooooooooooooooooooooooo    ++++++++++++++++",
"++++++++++++++++    oooooooooooooooooooooooo    ++++++++++++++++",
"++++++++++++++++    OOOOooooooooooooooooOOOO    ++++++++++++++++",
"++++++++++++++++    OOOOooooooooooooooooOOOO    ++++++++++++++++",
"++++++++++++++++    OOOOooooooooooooooooOOOO    ++++++++++++++++",
"++++++++++++++++    OOOOooooooooooooooooOOOO    ++++++++++++++++",
"++++++++++++++++    ....OOOOOOOOOOOOOOOO....    ++++++++++++++++",
"++++++++++++++++    ....OOOOOOOOOOOOOOOO....    ++++++++++++++++",
"++++++++++++++++    ....OOOOOOOOOOOOOOOO....    ++++++++++++++++",
"++++++++++++++++    ....OOOOOOOOOOOOOOOO....    ++++++++++++++++",
"++++++++++++++++    ........................    ++++++++++++++++",
"++++++++++++++++    ........................    ++++++++++++++++",
"++++++++++++++++    ........................    ++++++++++++++++",
"++++++++++++++++    ........................    ++++++++++++++++",
"++++++++++++++++    ....XXXX....XXXXXXXXXXXX    ++++++++++++++++",
"++++++++++++++++    ....XXXX....XXXXXXXXXXXX    ++++++++++++++++",
"++++++++++++++++    ....XXXX....XXXXXXXXXXXX    ++++++++++++++++",
"++++++++++++++++    ....XXXX....XXXXXXXXXXXX    ++++++++++++++++",
"++++++++++++    XXXXXXXXXXXXXXXXXXXXXXXXXXXXXXXX    ++++++++++++",
"++++++++++++    XXXXXXXXXXXXXXXXXXXXXXXXXXXXXXXX    ++++++++++++",
"++++++++++++    XXXXXXXXXXXXXXXXXXXXXXXXXXXXXXXX    ++++++++++++",
"++++++++++++    XXXXXXXXXXXXXXXXXXXXXXXXXXXXXXXX    ++++++++++++",
"++++++++++++++++XXXXXXXXXXXXXXXXXXXXXXXXXXXXXXXX++++++++++++++++",
"++++++++++++++++XXXXXXXXXXXXXXXXXXXXXXXXXXXXXXXX++++++++++++++++",
"++++++++++++++++XXXXXXXXXXXXXXXXXXXXXXXXXXXXXXXX++++++++++++++++",
"++++++++++++++++XXXXXXXXXXXXXXXXXXXXXXXXXXXXXXXX++++++++++++++++",
"++++++++++++++++++++++++++++XXXXXXXX++++++++++++++++++++++++++++",
"++++++++++++++++++++++++++++XXXXXXXX++++++++++++++++++++++++++++",
"++++++++++++++++++++++++++++XXXXXXXX++++++++++++++++++++++++++++",
"++++++++++++++++++++++++++++XXXXXXXX++++++++++++++++++++++++++++",
"++++++++++++++++++++++++++++++++++++++++++++++++++++++++++++++++",
"++++++++++++++++++++++++++++++++++++++++++++++++++++++++++++++++",
"++++++++++++++++++++++++++++++++++++++++++++++++++++++++++++++++",
"++++++++++++++++++++++++++++++++++++++++++++++++++++++++++++++++",
"++++++++++++++++++++++++++++++++++++++++++++++++++++++++++++++++",
"++++++++++++++++++++++++++++++++++++++++++++++++++++++++++++++++",
"++++++++++++++++++++++++++++++++++++++++++++++++++++++++++++++++",
"++++++++++++++++++++++++++++++++++++++++++++++++++++++++++++++++"
};
