/* XPM */
static char *result[] = {
/* columns rows colors chars-per-pixel */
"64 64 8 1 ",
"  c #54575E",
". c #545959",
"X c #6B7470",
"o c #818B83",
"O c #9DA89A",
"+ c #C1C8B9",
"@ c #F3F4E7",
"# c None",
/* pixels */
"################################################################",
"################################################################",
"################################################################",
"################################################################",
"################################################################",
"################################################################",
"################################################################",
"################################################################",
"################################################################",
"################################################################",
"################################################################",
"################################################################",
"############################XXXXXXXXXXXX########################",
"############################XXXXXXXXXXXX########################",
"############################XXXXXXXXXXXX########################",
"############################XXXXXXXXXXXX########################",
"####################XXXXXXXX++++++++++++XXXX####################",
"####################XXXXXXXX++++++++++++XXXX####################",
"####################XXXXXXXX++++++++++++XXXX####################",
"####################XXXXXXXX++++++++++++XXXX####################",
"############XXXXXXXX++++++++++++++++++++++++XXXX################",
"############XXXXXXXX++++++++++++++++++++++++XXXX################",
"############XXXXXXXX++++++++++++++++++++++++XXXX################",
"############XXXXXXXX++++++++++++++++++++++++XXXX################",
"########XXXX++++OOOOOOOOOOOO++++++++++++ooooXXXX################",
"########XXXX++++OOOOOOOOOOOO++++++++++++ooooXXXX################",
"########XXXX++++OOOOOOOOOOOO++++++++++++ooooXXXX################",
"########XXXX++++OOOOOOOOOOOO++++++++++++ooooXXXX################",
"####....++++++++++++OOOOOOOOOOOOOOOOooooooooOOOOXXXX############",
"####....++++++++++++OOOOOOOOOOOOOOOOooooooooOOOOXXXX############",
"####....++++++++++++OOOOOOOOOOOOOOOOooooooooOOOOXXXX############",
"####....++++++++++++OOOOOOOOOOOOOOOOooooooooOOOOXXXX############",
"####....++++++++++++++++++++OOOOOOOOooooOOOOOOOOOOOOXXXX########",
"####....++++++++++++++++++++OOOOOOOOooooOOOOOOOOOOOOXXXX########",
"####....++++++++++++++++++++OOOOOOOOooooOOOOOOOOOOOOXXXX########",
"####....++++++++++++++++++++OOOOOOOOooooOOOOOOOOOOOOXXXX########",
"####....oooo++++++++++++++++++++++++OOOOOOOOOOOOOOOOOOOO....####",
"####....oooo++++++++++++++++++++++++OOOOOOOOOOOOOOOOOOOO....####",
"####....oooo++++++++++++++++++++++++OOOOOOOOOOOOOOOOOOOO....####",
"####....oooo++++++++++++++++++++++++OOOOOOOOOOOOOOOOOOOO....####",
"####....oooooooo++++++++++++++++++++++++XXXXOOOOOOOOoooo....####",
"####....oooooooo++++++++++++++++++++++++XXXXOOOOOOOOoooo....####",
"####....oooooooo++++++++++++++++++++++++XXXXOOOOOOOOoooo....####",
"####....oooooooo++++++++++++++++++++++++XXXXOOOOOOOOoooo....####",
"####....oooooooooooooooo++++++++++++++++ooooXXXXoooooooo    @@@@",
"####....oooooooooooooooo++++++++++++++++ooooXXXXoooooooo    @@@@",
"####....oooooooooooooooo++++++++++++++++ooooXXXXoooooooo    @@@@",
"####....oooooooooooooooo++++++++++++++++ooooXXXXoooooooo    @@@@",
"@@@@    ooooooooooooooooooooooooooooooooooooXXXX@@@@@@@@@@@@####",
"@@@@    ooooooooooooooooooooooooooooooooooooXXXX@@@@@@@@@@@@####",
"@@@@    ooooooooooooooooooooooooooooooooooooXXXX@@@@@@@@@@@@####",
"@@@@    ooooooooooooooooooooooooooooooooooooXXXX@@@@@@@@@@@@####",
"####@@@@@@@@@@@@oooooooooooooooooooooooooooo@@@@################",
"####@@@@@@@@@@@@oooooooooooooooooooooooooooo@@@@################",
"####@@@@@@@@@@@@oooooooooooooooooooooooooooo@@@@################",
"####@@@@@@@@@@@@oooooooooooooooooooooooooooo@@@@################",
"################@@@@@@@@@@@@@@@@@@@@@@@@@@@@####################",
"################@@@@@@@@@@@@@@@@@@@@@@@@@@@@####################",
"################@@@@@@@@@@@@@@@@@@@@@@@@@@@@####################",
"################@@@@@@@@@@@@@@@@@@@@@@@@@@@@####################",
"################################################################",
"################################################################",
"################################################################",
"################################################################"
};
